PathFileType	4	(X/Y/Z)	/home/abdul/Desktop/myosuite/custom_workspace/IK/output/S3_12_3.trc
DataRate	CameraRate	NumFrames	NumMarkers	Units	OrigDataRate	OrigDataStartFrame	OrigNumFrames
200.0	200.0	33	3	mm	200.0	279	1113
Frame#	Time	V_Shoulder			V_Elbow			V_Wrist		
		X1	Y1	Z1	X2	Y2	Z2	X3	Y3	Z3

279	1.39	-126.06130481160103	649.2644278905458	317.62836165971794	-345.6794702304926	449.2100619185553	98.65363002588819	-119.74259876697612	309.83857467455846	221.20292525734902
280	1.395	-125.95941369353982	649.5497119514101	317.812966454891	-346.0624428710488	449.01858164178134	100.11019560211659	-119.70014074367391	311.4023992303222	224.08067767483067
281	1.4	-125.85669057686937	649.8358228378694	317.9959872034664	-346.4358764346547	448.83029466026005	101.55932923397985	-119.66290266071442	312.97478841843605	226.9365802201952
282	1.405	-125.75322312919472	650.1226533611408	318.177309033116	-346.79962463153754	448.64523422796555	103.00018330112307	-119.6308643488935	314.5552702109685	229.76935164326494
283	1.41	-125.64910036785055	650.4100960603354	318.35681840932983	-347.15355628654464	448.4634323556786	104.43191894385228	-119.60399701173498	316.14337218126684	232.577738759994
284	1.415	-125.54441245619391	650.698043408107	318.5344033401488	-347.49755553162765	448.2849201331023	105.8537073072448	-119.58226337476728	317.73862120790056	235.36051724518904
285	1.42	-125.43925049885452	650.9863880151348	318.70995358011186	-347.8315219641255	448.1097280541479	107.26473076471731	-119.56561785031036	319.3405431102565	238.1164923780486
286	1.425	-125.33370633649129	651.2750228326064	318.88336083285793	-348.15537077057724	447.9378863438336	108.66418411864575	-119.55400671720622	320.94866221933114	240.84449974197045
287	1.43	-125.22787234060108	651.5638413518849	319.0545189518287	-348.46903281588385	447.7694252851042	110.05127577578942	-119.54736831488107	322.56250088787846	243.54340588022552
288	1.435	-125.12184120892175	651.8527378005539	319.2233241385188	-348.7724546977246	447.6043755437628	111.42522889542887	-119.54563325108474	324.1815789446666	246.21210890922924
289	1.44	-125.01570576196553	652.141607334062	319.3896751377277	-349.0655987662158	447.44276848958435	112.78528250828771	-119.54872462261619	325.8054130981739	248.84953909126224
290	1.445	-124.90955874121111	652.4303462222019	319.55347342927325	-349.34844310888514	447.2846365115748	114.13069260446709	-119.55655824830998	327.43351629560766	251.454659368597
291	1.45	-124.80349260947425	652.7188520296969	319.71462341563864	-349.6209815011117	447.1300133252407	115.4607331887782	-119.56904291352919	329.0653970436571	254.02646586107608
292	1.455	-124.69759935396506	653.0070237901881	319.8730326050329	-349.8832233222656	446.9789342696527	116.77469730201149	-119.58608062538656	330.7005586978812	256.56398832926106
293	1.46	-124.59197029252829	653.2947621729564	320.0286117893599	-350.1351934378529	446.8314365920112	118.07189800682929	-119.60756687789609	332.3384987280935	259.06629060532504
294	1.465	-124.48669588354869	653.5819696417472	320.18127521660216	-350.37693204805066	446.68755971737494	119.35166933711145	-119.63339092624219	333.978707967519	261.5324709938983
295	1.47	-124.38186553998821	653.8685506051032	320.33094075714604	-350.6084945030897	446.5473455011711	120.613367209719	-119.66343606934521	335.6206698538715	263.96166264509554
296	1.475	-124.27756744800531	654.1544115576593	320.4775300635876	-350.8299510860144	446.4108384620963	121.85637029776817	-119.69757993989731	337.2638596708232	266.35303390194963
297	1.48	-124.17388839058798	654.4394612118912	320.6209687235796	-351.04138676341887	446.2780859930187	123.0800808646261	-119.73569480104366	338.90774379860716	268.70578862445655
298	1.485	-124.07091357661375	654.723610619862	320.761186405299	-351.24290090483004	446.14913854751927	124.28392555794888	-119.77764784889051	340.55177898271165	271.01916649239536
299	1.49	-123.96872647572887	655.0067732845599	320.898116995135	-351.4346069714717	446.02404979976245	125.4673561631819	-119.8233015200313	342.1954116297792	273.2924432890253
300	1.495	-123.86740865941765	655.2888652604701	321.03169872721963	-351.61663217521277	445.9028767754564	126.62985031603125	-119.87251380329823	343.83807713991825	275.5249311676814
301	1.5	-123.76703964861066	655.5698052430786	321.16187430444637	-351.7891171085645	445.78567995176326	127.770912173493	-119.92513855496574	345.47919928466723	277.7159789031916
302	1.505	-123.66769676815738	655.8495146470617	321.2885910106449	-351.9522153466553	445.6725233241385	128.8900730430949	-119.9810258166558	347.11818963981165	279.8649721299171
303	1.51	-123.56945500846388	656.1279176729673	321.4118008136057	-352.1060930221704	445.5634744382229	129.9868919700608	-120.04002213522244	348.75444708215343	281.9713335680831
304	1.515	-123.47238689457303	656.404941362258	321.53146045867203	-352.25092837430253	445.458604385077	131.0609562821549	-120.10197088392161	350.3873573591549	284.0345232399116
305	1.52	-123.37656236293799	656.6805156406358	321.6475315526441	-352.3869112728172	445.35798775823946	132.11188209199696	-120.1667125842058	352.01629274013635	286.0540386768971
306	1.525	-123.28204864611467	656.954573349634	321.75998063776575	-352.51424271838823	445.26170257129684	133.13931475666624	-120.23408522751603	353.6406117573891	288.02941511938104
307	1.53	-123.18891016557252	657.2270502665145	321.86877925559105	-352.63313432041184	445.16983013488255	134.1429292944277	-120.30392459647979	355.2596590451798	289.96022570937976
308	1.535	-123.0972084327967	657.4978851125725	321.97390400055474	-352.7438077535563	445.08245489227113	135.12243075842093	-120.37606458495907	356.87276528416385	291.84608167741106
309	1.54	-123.00700195882803	657.7670195500008	322.0753365630995	-352.84649419435027	444.99966421299393	136.0775545671538	-120.4503375164287	358.47924725819746	293.6866325238375
310	1.545	-122.91834617236019	658.0343981675323	322.17306376223775	-352.9414337391555	444.921548144181	137.00806679163404	-120.52657446020052	360.07840802994747	295.4815661950157
311	1.55	-122.83129334648709	658.29996845513	322.26707756745753	-353.02887480490915	444.84819911961904	137.91376439896084	-120.60460554504257	361.6695372410321	297.2306092543013
